<?xml version="1.0" encoding="UTF-8"?>
<svg width="609px" height="207px" viewBox="0 0 609 207" version="1.1" xmlns="http://www.w3.org/2000/svg" xmlns:xlink="http://www.w3.org/1999/xlink" xmlns:sketch="http://www.bohemiancoding.com/sketch/ns">
    <!-- Generator: Sketch 3.4.2 (15855) - http://www.bohemiancoding.com/sketch -->
    <title>airhelp-seeklogo.com</title>
    <desc>Created with Sketch.</desc>
    <defs></defs>
    <g id="Page-1" stroke="none" stroke-width="1" fill="none" fill-rule="evenodd" sketch:type="MSPage">
        <g id="airhelp-seeklogo.com" sketch:type="MSLayerGroup" fill="#FFFFFF">
            <g id="Group" sketch:type="MSShapeGroup">
                <path d="M577.747501,70.1956406 L535.572164,70.1956406 C534.013897,70.1982281 532.478251,69.8243344 531.095135,69.10695 C529.712019,68.3889188 528.522152,67.3480969 527.626358,66.0724594 C526.730564,64.7968219 526.154697,63.3241462 525.947876,61.7786325 C525.741701,60.2330541 525.910389,58.6605009 526.439722,57.1940353 L544.475811,8.18038125 C545.354154,5.79464156 546.93892,3.73380778 549.018118,2.27287294 C551.097316,0.811931625 553.572059,0.0203712581 556.11208,0.00381839963 C558.652747,-0.0127344459 561.137832,0.746506688 563.235773,2.1802275 C565.333714,3.61394831 566.944979,5.65395272 567.854345,8.02804219 L586.742278,57.0416963 C587.310389,58.5052509 587.513333,60.0853078 587.333011,61.6450528 C587.153335,63.2047331 586.596211,64.6972031 585.710112,65.9928938 C584.824659,67.2885844 583.636084,68.3481656 582.248444,69.0804281 C580.860804,69.8126906 579.316109,70.1956406 577.747501,70.1956406 L577.747501,70.1956406 Z" id="Shape"></path>
                <path d="M577.610482,18.0441253 C575.765897,18.0561572 573.947164,18.4748147 572.282901,19.2704062 L586.742278,56.9656237 C587.311036,58.4304075 587.513333,60.0118228 587.333011,61.5727322 C587.152042,63.1336416 586.593625,64.6268878 585.706234,65.9230313 C584.818196,67.2187219 583.628328,68.2783031 582.238749,69.0099187 C580.849171,69.7415344 579.301891,70.1218969 577.731989,70.1199563 L549.703859,70.1199563 L547.869615,75.1694625 C547.334465,76.6352812 547.161253,78.209775 547.365488,79.7571 C547.569724,81.304425 548.144945,82.7793 549.042032,84.0562312 C549.939118,85.3325156 551.132217,86.3726906 552.517918,87.0881344 C553.904265,87.8035781 555.442497,88.1722969 557.002057,88.1638875 L599.177394,88.1638875 C600.746648,88.1658281 602.291989,87.7848187 603.680922,87.05385 C605.069855,86.3228812 606.259722,85.2639469 607.147114,83.9689031 C608.034505,82.6738594 608.593568,81.1821656 608.774537,79.6219031 C608.956152,78.0622875 608.754501,76.4819719 608.187682,75.0174469 L589.284238,25.9959656 C588.340617,23.6648869 586.728059,21.665655 584.6508,20.2504866 C582.572895,18.8353181 580.123358,18.0676069 577.610482,18.0441253 L577.610482,18.0441253 Z" id="Shape"></path>
                <path d="M572.283547,19.2704063 C569.329884,20.6786531 567.032232,23.1720328 565.868217,26.2321397 L549.741992,70.1199563 L577.785634,70.1199563 C579.351011,70.1134875 580.891181,69.7260094 582.273651,68.9911594 C583.656766,68.2563094 584.839524,67.1954344 585.721099,65.9010375 C586.602674,64.6061878 587.156566,63.1162406 587.334303,61.5595359 C587.512686,60.0028312 587.309097,58.4262028 586.742278,56.9656237 L572.283547,19.2704063 L572.283547,19.2704063 Z" id="Shape"></path>
                <g transform="translate(0.000000, 63.218750)" id="Shape">
                    <path d="M79.0773832,92.6962375 L30.1057773,92.6962375 L22.3129539,115.180319 L0,115.180319 L40.2652798,2.6201875 L69.3742442,2.6201875 L109.639718,115.180319 L86.6418632,115.180319 L79.0773832,92.6962375 L79.0773832,92.6962375 Z M72.7299158,74.2712969 L68.30136,61.2691094 C63.4154065,46.972525 58.2937417,32.9042875 54.5495697,19.7507312 C50.7445147,32.9042875 45.6913594,47.3535344 40.7980379,61.5737875 L36.5287343,74.2712969 L72.7299158,74.2712969 L72.7299158,74.2712969 Z"></path>
                    <path d="M118.345592,12.4843844 C118.313922,10.0566625 119.004187,7.67422187 120.329135,5.6398 C121.653436,3.606025 123.552958,2.012125 125.784686,1.06167156 C128.017061,0.110894687 130.481463,-0.154000625 132.863783,0.300687812 C135.246749,0.75537625 137.440992,1.90927187 139.167301,3.61508125 C140.892964,5.32089062 142.073137,7.50215312 142.557227,9.88135937 C143.041318,12.2605656 142.807998,14.7303344 141.885705,16.9756375 C140.964059,19.2215875 139.395451,21.1421594 137.380238,22.4934812 C135.364379,23.8448031 132.993046,24.5654219 130.567423,24.5641281 C128.970377,24.5822406 127.384964,24.2833844 125.904255,23.6843781 C124.422899,23.0860187 123.075331,22.1991531 121.938461,21.0755312 C120.802238,19.9525562 119.899335,18.6148187 119.282749,17.1399437 C118.666164,15.6650687 118.347531,14.0828125 118.345592,12.4843844 L118.345592,12.4843844 Z M140.886501,115.180319 L120.240589,115.180319 L120.240589,34.123 L140.871636,34.123 L140.886501,115.180319 L140.886501,115.180319 Z"></path>
                    <path d="M208.038712,35.5778219 L204.370223,53.4697375 C201.016491,52.4936031 197.550945,51.9534625 194.058901,51.8629 C183.130347,51.8629 176.334983,60.5840688 176.334983,75.1853313 L176.334983,115.180319 L155.703291,115.180319 L155.703291,34.123 L174.881419,34.123 L174.881419,46.0507281 C178.68628,38.2513563 185.192741,33.2089656 195.131785,33.2089656 C199.637253,33.2089656 203.076945,34.1993313 208.038712,35.5778219 L208.038712,35.5778219 Z"></path>
                    <path d="M312.251962,115.180319 L290.098842,115.180319 L290.098842,65.3974656 L239.826461,65.3974656 L239.826461,115.180319 L217.650074,115.180319 L217.650074,2.6201875 L239.810949,2.6201875 L239.810949,46.7441781 L290.098842,46.7441781 L290.098842,2.6201875 L312.251962,2.6201875 L312.251962,115.180319 L312.251962,115.180319 Z"></path>
                    <path d="M390.636495,89.1843531 L402.173232,101.8741 C390.33208,113.953844 379.175377,117.701837 366.040301,117.701837 C339.907168,117.701837 323.560549,100.883734 323.560549,75.0475469 C323.560549,49.9662625 338.78064,31.4649906 364.282322,31.4649906 C388.962537,31.4649906 402.173232,46.98805 402.173232,71.9173187 C402.173232,74.4388375 402.021347,78.2618687 401.868817,80.0213687 L343.727541,80.0213687 C345.48552,91.72075 352.441171,100.282141 366.558,100.282141 C376.12412,100.266616 381.162152,97.1363875 390.636495,89.1843531 L390.636495,89.1843531 Z M344.260105,65.2448031 L382.158771,65.2448031 C381.398057,54.4672187 375.050589,47.6582125 363.749758,47.6582125 C352.821851,47.6582125 346.482139,54.7718969 344.260105,65.2448031 L344.260105,65.2448031 Z"></path>
                    <path d="M435.947109,115.180319 L415.400084,115.180319 L415.400084,2.6201875 L435.947109,2.6201875 L435.947109,115.180319 L435.947109,115.180319 Z"></path>
                    <path d="M531.188851,74.6438969 C531.188851,100.952303 515.831095,117.465728 495.200048,117.465728 C484.279897,117.465728 476.334737,113.656928 470.984535,106.840159 L470.984535,143.773487 L450.383865,143.773487 L450.383865,34.1993312 L469.546482,34.1993312 L469.546482,44.8624187 C474.972303,36.7506062 483.298143,31.8608781 495.367444,31.8608781 C515.968114,31.830475 531.188851,48.4195844 531.188851,74.6438969 L531.188851,74.6438969 Z M510.252743,74.6438969 C510.252743,59.4106375 502.764528,49.5619656 490.618962,49.5619656 C478.701545,49.5619656 470.1398,59.0451531 470.1398,74.6438969 C470.1398,90.4716344 479.00596,99.5738125 490.390813,99.5738125 C502.186076,99.5052437 510.283766,90.0220562 510.283766,74.6438969 L510.252743,74.6438969 L510.252743,74.6438969 Z"></path>
                </g>
            </g>
        </g>
    </g>
</svg>