<?xml version="1.0" encoding="UTF-8"?>
<svg width="580px" height="185px" viewBox="0 0 580 185" version="1.1" xmlns="http://www.w3.org/2000/svg" xmlns:xlink="http://www.w3.org/1999/xlink" xmlns:sketch="http://www.bohemiancoding.com/sketch/ns">
    <!-- Generator: Sketch 3.4.2 (15855) - http://www.bohemiancoding.com/sketch -->
    <title>Data.ai_</title>
    <desc>Created with Sketch.</desc>
    <defs></defs>
    <g id="Page-1" stroke="none" stroke-width="1" fill="none" fill-rule="evenodd" sketch:type="MSPage">
        <g id="Data.ai_" sketch:type="MSLayerGroup" fill="#000000">
            <g id="katman_1" sketch:type="MSShapeGroup">
                <path d="M579.5,48.6 C579.5,52 576.7,54.8 573.3,54.8 C569.9,54.8 567.1,52 567.1,48.6 C567.1,45.2 569.9,42.4 573.3,42.4 C576.7,42.4 579.5,45.2 579.5,48.6 L579.5,48.6 Z" id="Shape"></path>
                <path d="M568.1,125.2 L578.4,125.2 L578.4,68.9 L568.1,68.9 L568.1,125.2 L568.1,125.2 Z" id="Shape"></path>
                <path d="M530.7,114.8 C520.9,114.8 512.9,106.8 512.9,97 C512.9,87.2 520.9,79.2 530.7,79.2 C540.5,79.2 548.5,87.2 548.5,97 L548.5,97 C548.5,106.9 540.6,114.8 530.7,114.8 L530.7,114.8 Z M558.9,97 L558.9,68.9 L548.6,68.9 L548.6,75.2 C543.7,71.2 537.6,68.9 530.8,68.9 C515.3,68.9 502.7,81.5 502.7,97.1 C502.7,112.7 515.3,125.3 530.8,125.3 C537.6,125.3 543.8,122.9 548.6,119 L548.6,125.3 L558.9,125.3 L558.9,97 L558.9,97 L558.9,97 L558.9,97 Z" id="Shape"></path>
                <path d="M497.3,119 C497.3,122.4 494.5,125.2 491.1,125.2 C487.7,125.2 484.9,122.4 484.9,119 C484.9,115.6 487.7,112.8 491.1,112.8 C494.5,112.8 497.3,115.5 497.3,119 L497.3,119 Z" id="Shape"></path>
                <path d="M446.5,114.8 C436.7,114.8 428.7,106.8 428.7,97 C428.7,87.2 436.7,79.2 446.5,79.2 C456.3,79.2 464.3,87.2 464.3,97 C464.3,106.9 456.3,114.8 446.5,114.8 L446.5,114.8 Z M464.3,75.2 C459.5,71.2 453.3,68.9 446.5,68.9 C431,68.9 418.4,81.5 418.4,97.1 C418.4,112.7 431,125.3 446.5,125.3 C453.3,125.3 459.5,122.9 464.3,119 L464.3,125.3 L474.6,125.3 L474.6,69 L464.3,69 L464.3,75.2 L464.3,75.2 Z" id="Shape"></path>
                <path d="M401.5,42.4 L391.2,42.4 L391.2,68.9 L377.7,68.9 L377.7,79.2 L391.2,79.2 L391.2,125.2 L401.5,125.2 L401.5,79.2 L415,79.2 L415,68.9 L401.5,68.9 L401.5,42.4 L401.5,42.4 Z" id="Shape"></path>
                <path d="M340.5,114.8 C330.7,114.8 322.7,106.8 322.7,97 C322.7,87.2 330.7,79.2 340.5,79.2 C350.3,79.2 358.3,87.2 358.3,97 C358.3,106.9 350.3,114.8 340.5,114.8 L340.5,114.8 Z M358.3,75.2 C353.4,71.2 347.3,68.9 340.5,68.9 C325,68.9 312.3,81.5 312.3,97.1 C312.3,112.7 324.9,125.3 340.5,125.3 C347.3,125.3 353.5,122.9 358.3,119 L358.3,125.3 L368.7,125.3 L368.7,69 L358.3,69 L358.3,75.2 L358.3,75.2 Z" id="Shape"></path>
                <path d="M276.5,114.8 C266.7,114.8 258.7,106.8 258.7,97 C258.7,87.2 266.7,79.2 276.5,79.2 C286.3,79.2 294.3,87.2 294.3,97 C294.3,106.9 286.3,114.8 276.5,114.8 L276.5,114.8 Z M294.3,75.2 C289.4,71.2 283.3,68.9 276.5,68.9 C261,68.9 248.3,81.5 248.3,97.1 C248.3,112.7 260.9,125.3 276.5,125.3 C283.3,125.3 289.5,122.9 294.3,119 L294.3,125.3 L304.6,125.3 L304.6,42.5 L294.3,42.5 L294.3,75.2 L294.3,75.2 Z" id="Shape"></path>
                <path d="M72.8,1 L0.1,75.1 L1.42108547e-14,75.2 L107.5,184.8 L107.6,184.9 L215.1,75.3 L215.2,75.2 L142.4,1 L142.3,0.9 L72.8,0.9 L72.8,1 Z M83.6,10.1 L131.4,10.1 L107.5,33.8 L83.6,10.1 L83.6,10.1 Z M114.3,40.9 L141.4,13.5 L197.9,70.5 L143.6,70.5 L114.3,40.9 L114.3,40.9 Z M73.6,13.5 L100.9,41.1 L71.7,70.6 L17.2,70.6 L73.6,13.5 L73.6,13.5 Z M79.1,76.1 L107.5,47 L135.9,76.1 L107.5,163.3 L79.1,76.1 L79.1,76.1 Z M144.9,79.7 L197.5,79.7 L118.6,160.5 L144.9,79.7 L144.9,79.7 Z M17.1,79.7 L70.2,79.7 L96.7,160.5 L17.1,79.7 L17.1,79.7 Z" id="Shape"></path>
            </g>
        </g>
    </g>
</svg>