<?xml version="1.0" encoding="UTF-8"?>
<svg width="554px" height="169px" viewBox="0 0 554 169" version="1.1" xmlns="http://www.w3.org/2000/svg" xmlns:xlink="http://www.w3.org/1999/xlink" xmlns:sketch="http://www.bohemiancoding.com/sketch/ns">
    <!-- Generator: Sketch 3.4.2 (15855) - http://www.bohemiancoding.com/sketch -->
    <title>Shape</title>
    <desc>Created with Sketch.</desc>
    <defs></defs>
    <g id="Page-1" stroke="none" stroke-width="1" fill="none" fill-rule="evenodd" sketch:type="MSPage">
        <path d="M372.6,10 L344.7,15.2 C343.3,15.5 342.2,16.7 342.2,18.2 L342.2,138.3 C342.2,141.7 339.7,143.5 334.6,143.6 L333.5,143.6 C328.3,143.6 325.9,141.7 325.9,138.3 L325.9,22.4 C325.9,20.7 324.5,19.3 322.8,19.3 C322.6,19.3 322.4,19.3 322.2,19.4 L293.6,24.7 C292.1,25 291.1,26.3 291.1,27.7 L291.1,138.3 C291.1,147.4 295.6,155.9 303.1,160.9 C311.8,166.3 322,169 332.3,168.5 L335,168.5 C345.3,169 355.5,166.3 364.2,160.9 C371.7,155.8 376.2,147.3 376.2,138.3 L376.2,13 C376.2,11.3 374.8,9.9 373.1,9.9 C373,9.9 372.8,9.9 372.6,10 L372.6,10 Z M276.5,27.9 L248.6,33.1 C247.2,33.4 246.1,34.6 246.1,36.1 L246.1,138.3 C246.1,141.7 243.6,143.5 238.5,143.6 L237.4,143.6 C232.3,143.6 229.8,141.7 229.8,138.3 L229.8,40.2 C229.8,38.5 228.4,37.1 226.7,37.1 C226.5,37.1 226.3,37.1 226.1,37.2 L197.5,42.5 C196,42.8 195,44.1 195,45.5 L195,138.2 C195,147.3 199.5,155.8 207,160.8 C215.7,166.2 225.9,168.9 236.2,168.4 L238.9,168.4 C249.2,168.8 259.3,166.2 268,160.8 C275.5,155.7 280,147.2 280,138.2 L280,30.9 C280,29.2 278.6,27.8 276.8,27.8 C276.8,27.8 276.7,27.8 276.5,27.9 L276.5,27.9 Z M184.6,48.6 C184.6,46.9 183.3,45.6 181.6,45.5 C181.4,45.5 181.2,45.5 181,45.6 L153.1,50.8 C151.6,51.1 150.6,52.3 150.6,53.8 L150.6,138.3 C150.6,141.7 148.1,143.5 143,143.6 L142,143.6 C136.9,143.6 134.4,141.7 134.4,138.3 L134.4,58 C134.4,56.3 133,54.9 131.3,54.9 C131.1,54.9 130.9,54.9 130.7,55 L102.2,60.3 C100.8,60.6 99.7,61.9 99.7,63.3 L99.7,138.2 C99.6,147.3 104.1,155.8 111.7,160.8 C120.4,166.3 130.6,168.9 140.9,168.4 L143.6,168.4 C153.9,168.9 164,166.2 172.8,160.8 C180.3,155.7 184.8,147.2 184.8,138.2 L184.6,48.6 L184.6,48.6 Z M84.9,7.4 L56.1,12.8 C54.6,13.1 53.6,14.3 53.5,15.8 L53.5,70.7 L36,73.8 L36,20.2 C36,18.5 34.6,17.1 32.9,17.1 C32.7,17.1 32.5,17.1 32.3,17.2 L3.4,22.6 C1.9,22.9 0.9,24.1 0.9,25.6 L0.9,163.2 C0.9,165.2 2.6,166.8 4.6,166.8 L32.4,166.8 C34.4,166.8 36,165.2 36,163.2 L36,99.8 L53.6,96.5 L53.6,163.2 C53.6,165.2 55.3,166.9 57.3,166.9 L84.8,166.9 C86.8,166.9 88.4,165.3 88.4,163.3 L88.4,163.3 L88.4,10.4 C88.4,8.7 87,7.3 85.3,7.4 C85.3,7.3 85.1,7.3 84.9,7.4 L84.9,7.4 Z M471.8,82.9 L471.8,71.6 C471.8,70 470.5,68.8 469,68.8 L469,68.8 L433.4,68.8 C431.9,68.8 430.6,70 430.6,71.5 L430.6,71.6 L430.6,93.3 C430.6,94.9 431.9,96.1 433.4,96.1 L437.9,96.1 L437.9,138.4 C437.9,141.8 435.4,143.6 430.3,143.7 L429.2,143.7 C424.1,143.7 421.6,141.8 421.7,138.4 L421.7,30.6 C421.7,28.2 423.1,26.7 425.9,26 C427,25.8 428.1,25.7 429.2,25.7 L430.3,25.7 C431.3,25.7 432.3,25.8 433.3,26 C436.3,26.7 437.9,28.4 437.9,31 L437.9,45.3 C437.9,47 439.3,48.4 441,48.4 L441.6,48.4 L469.5,43.2 C471,42.9 472,41.6 472,40.2 L472,28.6 C471.4,20.4 467,12.9 460.1,8.4 C453.5,4 445.9,1.5 438.1,1 C435.7,0.7 433.3,0.6 431,0.6 L428.3,0.6 C426.1,0.6 424.1,0.6 421.9,0.9 C413.8,1.3 405.9,3.9 399.1,8.3 C391.6,13.3 387.1,21.6 387.1,30.6 L387.1,138.3 C387.1,147.4 391.6,155.9 399.1,160.9 C407.8,166.3 418,169 428.3,168.5 L431,168.5 C441.3,169 451.4,166.3 460.2,160.9 C467.7,155.8 472.2,147.3 472.2,138.3 L471.8,82.9 L471.8,82.9 Z M515.9,29.5 L515.9,68.7 L534.2,68.7 C535.8,68.7 537.1,70 537.1,71.5 L537.1,93.2 C537.1,94.8 535.8,96 534.3,96 L534.3,96 L516,96 L516,139.1 L549.8,139.1 C551.7,139.1 553.2,140.6 553.2,142.5 L553.2,142.5 L553.2,163.3 C553.2,164.8 552,166 550.5,166 L485.8,166 C484,166 482.5,164.5 482.5,162.7 L482.5,5.5 C482.5,3.8 483.9,2.4 485.6,2.4 L485.6,2.4 L550,2.4 C551.6,2.4 553,3.7 553,5.4 L553,26.3 C553,28.1 551.6,29.5 549.8,29.6 L515.9,29.5 L515.9,29.5 Z" id="Shape" fill="#FFFFFF" sketch:type="MSShapeGroup"></path>
    </g>
</svg>