<?xml version="1.0" encoding="UTF-8"?>
<svg width="1005px" height="663px" viewBox="0 0 1005 663" version="1.1" xmlns="http://www.w3.org/2000/svg" xmlns:xlink="http://www.w3.org/1999/xlink" xmlns:sketch="http://www.bohemiancoding.com/sketch/ns">
    <!-- Generator: Sketch 3.4.2 (15855) - http://www.bohemiancoding.com/sketch -->
    <title>intel</title>
    <desc>Created with Sketch.</desc>
    <defs></defs>
    <g id="Page-1" stroke="none" stroke-width="1" fill="none" fill-rule="evenodd" sketch:type="MSPage">
        <g id="intel" sketch:type="MSLayerGroup" fill="#000000">
            <g id="svg4419" sketch:type="MSShapeGroup">
                <g id="g4421" transform="translate(-0.000001, -0.000380)">
                    <path d="M296.095537,281.105501 L296.095537,443.39469 L244.434336,443.39469 L244.434336,239.404743 L351.089351,239.510637 C396.390057,239.510637 411.821882,271.456167 411.821882,300.473237 L411.821882,443.394926 L360.25393,443.394926 L360.25393,300.740604 C360.25393,288.585377 353.961829,281.105737 338.784893,281.105737 L296.095537,281.105737 L296.095537,281.105501 Z M647.3843,278.668237 C629.726595,278.668237 616.060547,287.745807 610.352857,300.068881 C606.970533,307.467716 605.807883,313.138074 605.409969,322.196961 L684.888256,322.196961 C683.868598,300.068881 673.833558,278.668237 647.3843,278.668237 L647.3843,278.668237 Z M605.409969,357.356934 C605.409969,383.781304 621.836597,403.229641 651.164538,403.229641 C673.982755,403.229641 685.32347,396.906446 698.517005,383.781304 L730.425236,414.24704 C709.99454,434.416641 688.556597,446.665116 650.785273,446.665116 C601.331269,446.665116 554.003658,419.699807 554.003658,341.110597 C554.003658,273.961589 595.325185,235.94782 649.62259,235.94782 C704.659909,235.94782 736.456208,280.452664 736.456208,338.747965 L736.456208,357.356934 L605.409969,357.356934 L605.409969,357.356934 Z M510.39413,443.139767 C468.307868,443.139767 450.451189,413.84292 450.451189,384.906688 L450.451189,183.826518 L502.031586,183.826518 L502.031586,239.404743 L540.915815,239.404743 L540.915815,281.105501 L502.031586,281.105501 L502.031586,381.673561 C502.031586,393.524122 507.627345,400.10224 519.931769,400.10224 L540.915815,400.10224 L540.915815,443.139767 L510.39413,443.139767 L510.39413,443.139767 Z M198.468348,211.214596 L146.452772,211.214596 L146.452772,161.80413 L198.468348,161.80413 L198.468348,211.214596 L198.468348,211.214596 Z M198.599199,445.539732 C159.646576,441.796793 146.397093,418.170303 146.397093,390.906567 L146.453412,239.404743 L198.599604,239.404743 L198.599604,445.539732 L198.599199,445.539732 Z M818.552354,441.181255 C779.680535,437.43211 766.493239,413.84292 766.493239,386.616482 L766.493239,154.772115 L818.552354,154.772115 L818.552354,441.181255 L818.552354,441.181255 Z M1000.5448,188.278243 C953.366388,-41.7381927 506.869051,-56.2995568 219.073399,118.903355 L219.073399,138.246 C506.576829,-9.50664589 914.326689,-8.63621846 951.476269,203.218872 C963.905035,273.271452 924.430122,346.308441 853.929884,388.288978 L853.929884,443.214399 C938.786341,412.170424 1025.81269,311.502878 1000.54477,188.278243 L1000.5448,188.278243 Z M477.398084,590.718294 C278.773828,609.078579 71.7932663,580.24804 42.8321457,425.040643 C28.6562518,348.528082 63.511559,267.420804 109.751119,217.04039 L109.751119,190.099969 C26.5112097,263.09342 -18.6651545,355.504114 7.34265065,464.695847 C40.5379067,604.713897 218.178083,684.061637 489.317039,657.711866 C596.593797,647.241612 737.00359,612.74692 834.618334,559.170712 L834.618334,483.056133 C746.043827,535.799145 599.47248,579.414878 477.398084,590.718294 L477.398084,590.718294 Z" id="path4423"></path>
                    <path d="M878.729411,170.167248 C878.729411,167.642941 877.255856,166.840907 873.885976,166.840907 L870.634233,166.840907 L870.634233,173.984786 C871.106746,173.984786 873.469412,174.071795 873.885976,174.071795 C877.255856,174.071795 878.729411,172.946445 878.729411,170.583779 L878.729411,170.167484 L878.729411,170.167248 Z M883.80288,187.880902 L879.948043,187.880902 C879.599872,187.880902 879.295205,187.663042 879.145975,187.37109 L873.885976,178.455195 C873.792559,178.275106 873.338831,178.057246 873.15854,178.057246 L870.795874,178.057246 L870.795874,186.898543 C870.795874,187.37109 870.472457,187.880902 869.850815,187.880902 L866.362799,187.880902 C865.927585,187.880902 865.492371,187.37109 865.492371,186.898543 L865.492371,164.53419 C865.492371,163.240959 865.995978,162.700053 867.090268,162.532173 C868.321311,162.370633 871.666336,162.258668 873.469412,162.258668 C879.873444,162.258668 883.746931,164.148787 883.746931,170.167316 L883.746931,170.583644 C883.746931,174.307933 881.894111,176.272651 879.021633,177.23636 L884.4744,186.456922 C884.509137,186.643418 884.63594,186.898611 884.63594,187.115964 C884.63594,187.47658 884.418081,187.880733 883.802778,187.880733 L883.80288,187.880902 Z M874.650644,158.223271 C865.162715,158.223271 857.490341,166.05732 857.490341,175.489266 C857.490341,184.933623 865.162715,192.64333 874.650644,192.64333 C884.088795,192.64333 891.835802,184.933623 891.835802,175.489266 C891.835802,166.05732 884.088795,158.223271 874.650644,158.223271 L874.650644,158.223271 Z M874.650644,196.19974 C863.123399,196.19974 853.927692,186.898374 853.927692,175.489266 C853.927692,164.098808 863.123399,154.772554 874.650644,154.772554 C886.053547,154.772554 895.423305,164.098808 895.423305,175.489266 C895.423305,186.898374 886.053547,196.19974 874.650644,196.19974 L874.650644,196.19974 Z" id="path4425"></path>
                </g>
            </g>
        </g>
    </g>
</svg>