<?xml version="1.0" encoding="UTF-8"?>
<svg width="466px" height="130px" viewBox="0 0 466 130" version="1.1" xmlns="http://www.w3.org/2000/svg" xmlns:xlink="http://www.w3.org/1999/xlink" xmlns:sketch="http://www.bohemiancoding.com/sketch/ns">
    <!-- Generator: Sketch 3.4.2 (15855) - http://www.bohemiancoding.com/sketch -->
    <title>scalac</title>
    <desc>Created with Sketch.</desc>
    <defs></defs>
    <g id="Page-1" stroke="none" stroke-width="1" fill="none" fill-rule="evenodd" sketch:type="MSPage">
        <g id="scalac" sketch:type="MSLayerGroup" fill="#000000">
            <g id="Group" sketch:type="MSShapeGroup">
                <g id="Layer_2" transform="translate(110.000000, 0.000000)">
                    <g id="Group">
                        <path d="M25.7,129.7 C20.2,129.7 15.3,129 10.9,127.7 C6.5,126.4 3.1,124.9 0.8,123.3 L2.3,105.2 C3.7,106.2 5.3,107.2 7.2,108.3 C9.1,109.3 11,110.2 13.1,111 C15.1,111.8 17.2,112.5 19.3,113 C21.4,113.5 23.3,113.8 25,113.8 C27.2,113.8 28.9,113.5 30.2,112.9 C31.5,112.3 32.5,111.6 33.2,110.7 C33.9,109.8 34.3,108.8 34.5,107.6 C34.7,106.5 34.8,105.4 34.8,104.4 C34.8,100.9 33.6,98.3 31.2,96.6 C28.8,95 25.7,93.5 21.8,92.2 C19.2,91.3 16.7,90.3 14.2,89.2 C11.8,88.1 9.6,86.7 7.6,85 C5.7,83.3 4.1,81.1 2.9,78.4 C1.7,75.7 1.1,72.3 1.1,68.2 C1.1,65.2 1.5,62.2 2.3,59 C3.1,55.8 4.5,52.9 6.6,50.2 C8.6,47.5 11.4,45.3 14.9,43.6 C18.4,41.9 22.7,41 28,41 C30.4,41 32.8,41.2 35.3,41.6 C37.8,42 40.2,42.5 42.4,43.1 C44.6,43.7 46.6,44.3 48.5,45.1 C50.3,45.8 51.7,46.6 52.6,47.4 L51.1,65.5 C50.2,64.5 49,63.4 47.4,62.3 C45.9,61.2 44.1,60.2 42.2,59.3 C40.3,58.4 38.2,57.7 36.1,57.2 C33.9,56.6 31.9,56.3 30,56.3 C27.3,56.3 24.7,57 22.2,58.4 C19.8,59.8 18.5,62.2 18.5,65.7 C18.5,67.7 19,69.4 20,70.7 C21,72 22.2,73.1 23.8,73.9 C25.3,74.8 27.1,75.5 29.1,76.1 C31.1,76.7 33.2,77.4 35.3,78.1 C38,79 40.6,80.1 43.1,81.3 C45.5,82.5 47.6,84.1 49.4,86.1 C51.2,88.1 52.6,90.5 53.7,93.4 C54.8,96.3 55.3,100 55.3,104.4 C55.3,107 55,109.8 54.4,112.8 C53.8,115.8 52.5,118.5 50.5,120.9 C48.5,123.3 45.5,125.4 41.6,127 C37.5,128.9 32.3,129.7 25.7,129.7 L25.7,129.7 Z" id="Shape"></path>
                        <path d="M95.4,129.7 C89.6,129.7 84.4,128.5 80,126.1 C75.5,123.7 71.8,120.5 68.8,116.5 C65.8,112.5 63.6,107.9 62.1,102.5 C60.6,97.2 59.8,91.5 59.8,85.4 C59.8,79.5 60.6,73.8 62.1,68.4 C63.6,63 65.9,58.3 68.8,54.3 C71.8,50.3 75.5,47.1 80,44.7 C84.5,42.3 89.6,41.1 95.4,41.1 C98.5,41.1 101.1,41.3 103.3,41.6 C105.5,41.9 107.4,42.4 109.1,43 C110.8,43.6 112.3,44.3 113.6,45 C114.9,45.8 116.2,46.6 117.4,47.4 L115.9,65.5 C112.8,63.2 109.8,61.5 106.9,60.3 C103.9,59.1 100.6,58.5 97,58.5 C92,58.5 88,61 85.1,65.9 C82.1,70.8 80.7,77.3 80.7,85.3 C80.7,93.3 82.2,99.7 85.1,104.7 C88.1,109.6 92,112.1 97,112.1 C100.6,112.1 103.9,111.5 106.9,110.3 C109.9,109.1 112.9,107.4 115.9,105.1 L117.4,123.2 C114.9,124.9 112.1,126.4 109,127.6 C105.8,129.1 101.3,129.7 95.4,129.7 L95.4,129.7 Z" id="Shape"></path>
                        <path d="M189,129.7 L180,129.7 C176.9,129.7 173.9,128.8 171,127 C168,125.2 165.9,122.8 164.5,119.8 C162.2,123 159,125.4 154.7,127.1 C150.4,128.8 146.1,129.7 141.8,129.7 C139.1,129.7 136.5,129.1 133.9,128 C131.4,126.9 129.2,125.2 127.2,123 C125.3,120.8 123.7,118.1 122.6,115 C121.5,111.9 120.9,108.3 120.9,104.2 C120.9,98.2 122.5,93.2 125.6,89.4 C128.7,85.5 132.5,82.5 136.8,80.2 C141.1,77.9 145.6,76.3 150.1,75.3 C154.6,74.3 158.4,73.8 161.4,73.7 C161.2,68.8 160.2,65.3 158.6,63 C156.9,60.8 153.8,59.7 149.3,59.7 C145.7,59.7 142.3,60.2 139.2,61.2 C136.1,62.2 132.6,63.9 128.6,66.1 L127.2,48.9 C132.3,46.4 137.1,44.5 141.5,43.3 C145.9,42 150.4,41.4 154.8,41.4 C158.7,41.4 162.3,42 165.6,43.3 C169,44.6 171.8,46.5 174.2,49.3 C176.6,52 178.5,55.6 179.8,60 C181.2,64.4 181.8,69.6 181.8,75.8 L181.8,98.8 C181.8,102 181.9,104.5 182.1,106.3 C182.3,108.1 182.6,109.5 183,110.4 C183.5,111.3 184.1,111.9 184.8,112.1 C185.5,112.3 186.4,112.4 187.4,112.4 L190.1,112.4 L189,129.7 L189,129.7 Z M161.5,87.9 C160.1,88 158.4,88.4 156.2,89.1 C154,89.8 151.9,90.8 149.9,92 C147.9,93.3 146.1,94.8 144.6,96.7 C143.1,98.6 142.4,100.8 142.4,103.3 C142.4,106.8 143.1,109.4 144.4,111.1 C145.7,112.8 148.1,113.6 151.7,113.6 C152.5,113.6 153.9,113.1 155.9,112.1 C157.9,111.1 159.8,109.6 161.6,107.4 L161.6,87.9 L161.5,87.9 Z" id="Shape"></path>
                        <path d="M222.2,129.7 L214.5,129.7 C211.3,129.7 208.6,129.1 206.2,127.9 C203.9,126.7 201.9,125.1 200.4,123.1 C198.9,121.1 197.7,118.7 196.9,116 C196.1,113.3 195.7,110.4 195.7,107.3 L195.7,0 L216,0 L216,98.6 C216,102 216.1,104.7 216.3,106.5 C216.5,108.4 217,109.7 217.6,110.6 C218.2,111.5 219,111.9 220,112.1 C221,112.2 222.2,112.3 223.7,112.3 L222.2,129.7 L222.2,129.7 Z" id="Shape"></path>
                        <path d="M295.3,129.7 L286.3,129.7 C283.2,129.7 280.2,128.8 277.3,127 C274.3,125.2 272.2,122.8 270.8,119.8 C268.5,123 265.3,125.4 261,127.1 C256.7,128.8 252.4,129.7 248.1,129.7 C245.4,129.7 242.8,129.1 240.2,128 C237.7,126.9 235.5,125.2 233.5,123 C231.6,120.8 230,118.1 228.9,115 C227.8,111.9 227.2,108.3 227.2,104.2 C227.2,98.2 228.8,93.2 231.9,89.4 C235,85.5 238.8,82.5 243.1,80.2 C247.4,77.9 251.9,76.3 256.4,75.3 C260.9,74.3 264.7,73.8 267.7,73.7 C267.5,68.8 266.5,65.3 264.9,63 C263.2,60.8 260.1,59.7 255.6,59.7 C252,59.7 248.6,60.2 245.5,61.2 C242.4,62.2 238.9,63.9 234.9,66.1 L233.5,48.9 C238.6,46.4 243.4,44.5 247.8,43.3 C252.2,42 256.7,41.4 261.1,41.4 C265,41.4 268.6,42 271.9,43.3 C275.3,44.6 278.1,46.5 280.5,49.3 C282.9,52 284.8,55.6 286.1,60 C287.5,64.4 288.1,69.6 288.1,75.8 L288.1,98.8 C288.1,102 288.2,104.5 288.4,106.3 C288.6,108.1 288.9,109.5 289.3,110.4 C289.8,111.3 290.4,111.9 291.1,112.1 C291.8,112.3 292.7,112.4 293.7,112.4 L296.4,112.4 L295.3,129.7 L295.3,129.7 Z M267.8,87.9 C266.4,88 264.7,88.4 262.5,89.1 C260.3,89.8 258.2,90.8 256.2,92 C254.2,93.3 252.4,94.8 250.9,96.7 C249.4,98.6 248.7,100.8 248.7,103.3 C248.7,106.8 249.4,109.4 250.7,111.1 C252,112.8 254.4,113.6 258,113.6 C258.8,113.6 260.2,113.1 262.2,112.1 C264.2,111.1 266.1,109.6 267.9,107.4 L267.9,87.9 L267.8,87.9 Z" id="Shape"></path>
                        <path d="M333.4,129.7 C327.6,129.7 322.4,128.5 318,126.1 C313.5,123.7 309.8,120.5 306.8,116.5 C303.8,112.5 301.6,107.9 300.1,102.5 C298.6,97.2 297.8,91.5 297.8,85.4 C297.8,79.5 298.6,73.8 300.1,68.4 C301.6,63 303.9,58.3 306.8,54.3 C309.8,50.3 313.5,47.1 318,44.7 C322.5,42.3 327.6,41.1 333.4,41.1 C336.5,41.1 339.1,41.3 341.3,41.6 C343.5,41.9 345.4,42.4 347.1,43 C348.8,43.6 350.3,44.3 351.6,45 C352.9,45.8 354.2,46.6 355.4,47.4 L353.9,65.5 C350.8,63.2 347.8,61.5 344.9,60.3 C341.9,59.1 338.6,58.5 335,58.5 C330,58.5 326,61 323.1,65.9 C320.1,70.8 318.7,77.3 318.7,85.3 C318.7,93.3 320.2,99.7 323.1,104.7 C326.1,109.6 330,112.1 335,112.1 C338.6,112.1 341.9,111.5 344.9,110.3 C347.9,109.1 350.9,107.4 353.9,105.1 L355.4,123.2 C352.9,124.9 350.1,126.4 347,127.6 C343.8,129.1 339.3,129.7 333.4,129.7 L333.4,129.7 Z" id="Shape"></path>
                    </g>
                </g>
                <g id="Layer_4" transform="translate(0.000000, 41.000000)">
                    <path d="M0,0.1 L0,24 L30.6,44.4 L0,64.7 L0,88.7 L66.5,44.4 L0,0.1 Z" id="Shape"></path>
                </g>
            </g>
        </g>
    </g>
</svg>